Patient4_TMGait_0pt6_01_left_03_EMG.mot
version=1
nRows=33
nColumns=33
inDegrees=no
endheader
time	1LAddLong	2LGlutMax	3LGlutMed	4LIliopsoas	5LSemiMemb	6LBicFemLong	7LRecFem	8LVastMed	9LVastLat	10LGasMed	11LTibAnt	12lTibPost	13LPeroneusLong	14LSol	15LExtDigLong	16LFlexDigLong	17RAddLong	18RGlutMax	19RGlutMed	20RIliopsoas	21RSemiMemb	22RBicFemLong	23RRecFem	24RVastMed	25RVastLat	26RGasMed	27RTibAnt	28RTibPost	29RPeroneusLong	30RSol	31RExtDigLong	32RFlexDigLong
3.57	0.002899	0.47287	-0.017853	0.006256	0.014343	-0.015106	0.12253	0.007477	-0.53192	-0.015259	-0.097504	-0.002289	0.049591	0.1297	0.057678	0.015717	0.00946	-0.64392	0.25711	-0.079346	-0.00412	-0.079498	-0.074615	-0.01297	0.13321	-0.028076	0.37384	-0.001984	0.67093	0.16113	-0.002136	-0.000153
3.571	0.001984	0.47836	-0.020142	0.015869	0.002289	0.007324	0.13092	0.009766	-0.59036	0.005951	-0.035858	0.000763	0.088043	0.20828	0.10162	0.005188	0.022888	-0.65994	0.14984	-0.10284	-0.038147	0.009155	-0.075226	-0.060425	0.16419	-0.00351	0.28564	-0.00473	0.81222	-0.18143	0.006561	0.003662
3.572	0.004578	0.51056	-0.03418	0.004425	-0.012512	-0.001984	0.077362	0.010223	-0.57312	-0.029907	0.16312	0.008545	0.009613	0.15427	0.046387	0.007019	0.036621	-0.672	0.41489	-0.1294	-0.070801	0.069275	-0.043793	-0.057068	0.42633	0.004883	0.059814	-0.00946	1.2276	-0.14847	0.000153	0
3.573	0.003967	0.52872	-0.020447	0.000153	-0.029449	-0.034332	0.041504	0.011292	-0.51392	-0.035095	0.24567	-0.000458	-0.027618	0.055695	-0.11566	0.009308	0.045013	-0.66574	0.29495	-0.14465	-0.074463	-0.074768	-0.008392	-0.038757	0.57556	-0.00824	-0.19974	-0.013885	1.3556	-0.12177	-0.00061	-0.007935
3.574	0.000916	0.47272	-0.013885	0.014801	0.001526	-0.035248	0.044556	0.018005	-0.46219	-0.095978	0.22049	0.007935	0.041809	-0.072632	-0.13168	0.005493	0.036469	-0.65338	0.45929	-0.068817	-0.055695	-0.090027	-0.068359	-0.10376	0.50705	-0.014343	-0.35049	-0.012054	-0.82733	-0.056458	-0.006104	0.001678
3.575	0.00351	0.44723	-0.02533	0.01236	0.006104	-0.016022	0.032501	0.018921	-0.3833	-0.10376	0.072784	0.005493	0.09491	-0.11673	-0.076294	0.011597	0.017853	-0.70206	0.06424	0.16678	-0.1207	-0.010376	0.035095	-0.17685	0.37689	-0.0177	-0.39932	-0.017395	-1.4247	-0.062714	-0.001831	-0.002899
3.576	-0.00824	0.44525	-0.040588	0.018921	0.00885	0.003357	0.010681	0.014954	-0.27817	-0.052338	-0.043182	0.001526	0.023041	-0.074768	0.17624	0.007324	0.013885	-0.70084	-0.48386	0.30014	-0.10666	0.023956	0.05661	-0.12863	0.16968	-0.021667	-0.22766	-0.028229	-0.93231	0.034485	-0.002594	0.001526
3.577	-0.007172	0.40314	-0.02655	0.015411	0.002136	-0.006561	-0.011444	0.024719	-0.1973	-0.026855	-0.084229	0.005188	0.08606	-0.068512	0.10483	0.009918	0.002899	-0.55878	0.069427	0.029297	-0.017395	0.089264	-0.19836	0.03479	-0.075531	-0.00061	0.074005	-0.00946	-1.523	0.001678	0.000305	-0.004578
3.578	-0.013428	0.38818	-0.02533	0.014801	0.008087	0.009003	-0.036316	0.011444	-0.12573	-0.057373	-0.093842	0.007324	0.24353	-0.05661	0.49255	0.004425	0.016785	-0.57571	0.67123	-0.06424	0.052643	0.001831	-0.13443	-0.020905	-0.51224	0.013428	0.12146	0.072174	0.48004	-0.12955	-0.002594	-0.001221
3.579	-0.00473	0.38361	-0.010529	-0.00061	-0.008392	0.004578	-0.066833	0.009003	-0.076752	-0.018921	-0.02594	0.006866	0.14481	-0.20493	-0.15381	0.005798	0.012207	-0.56	1.0677	-0.039215	-0.15198	0.016632	-0.10269	-0.097046	-0.6543	0.005798	0.1648	0.007324	1.2515	0.006409	0.001831	-0.005798
3.58	-0.006409	0.3186	-0.013733	-0.012665	-0.013733	-0.007477	-0.02121	0.006409	-0.042419	0.018463	-0.039368	0.00473	0.095367	-0.12894	-0.14023	0.007477	-0.016479	-0.47867	0.28931	-0.009613	-0.10315	0.012207	-0.052185	0.14038	-0.48004	-0.00061	0.23102	-0.005798	0.5069	-0.065613	-0.002747	-0.002594
3.581	-0.006409	0.2655	-0.006104	0.003815	-0.001526	0.005951	0.058289	-0.004272	0.005035	0.025177	-0.00824	0.00351	0.10925	-0.001831	-0.18448	0.006104	-0.017548	-0.46677	0.19394	-0.004425	0.015411	-0.046234	-0.037689	0.2095	-0.15305	0.007629	-0.046844	-0.010986	-1.1346	-0.16953	-0.001678	-0.009003
3.582	0.005035	0.2449	-0.031281	-0.002136	0.011597	-0.000305	0.099182	0.002136	0.022583	0.012817	-0.005493	0.001526	0.06958	0.020905	-0.095062	0.005646	-0.009155	-0.53894	-0.26764	0.028534	0.064545	-0.043793	-0.05188	0.11505	0.005951	0.006866	-0.27359	-0.009155	-1.2631	-0.17914	0.003204	-0.009613
3.583	0.006561	0.22247	-0.019684	0.011749	0.001373	-0.002747	0.086517	0.009918	0.037994	0.029449	-0.018158	-0.002594	0.041199	0.03067	-0.025177	0.006561	-0.019073	-0.51743	-0.56168	-0.090179	0.11093	0.024109	-0.035248	0.099792	-0.031586	0.002594	-0.02182	-0.006866	-1.1453	-0.16434	0	-0.008545
3.584	-0.012817	0.16449	-0.029144	-0.000458	0.008698	0.001984	0.06134	0.00412	0.07431	0.032959	-0.029449	0.00412	-0.016174	0	0.052185	-0.000763	-0.007324	-0.44983	-0.11322	-0.059204	0.092621	0.112	0.23209	0.02182	-0.11932	0.003815	-0.17761	-0.002594	-0.81421	-0.11734	-0.001831	-0.003815
3.585	0.00351	0.10193	-0.014496	-0.012665	0.011139	-0.016632	0.077515	0.005798	0.10757	0.037231	-0.041809	0.010223	-0.058746	-0.013885	0.070801	0.00473	0.010529	-0.38681	0.21713	-0.098114	0.044861	0.09491	0.4892	-0.31754	-0.30212	0.002899	0.03418	-0.006104	0.22354	-0.064087	0.003204	-0.001526
3.586	0.000305	0.072632	-0.012512	0.009003	-0.003052	-0.004425	0.050964	0.005035	0.13916	0.016785	-0.07431	-0.001526	-0.032043	-0.049438	-0.024567	-0.001984	0.016937	-0.33554	0.22873	-0.096893	-0.036621	0.04364	0.62836	-0.78033	-0.39917	-0.002899	0.20294	-0.009613	0.88852	-0.000916	0.010376	-0.003357
3.587	0.007324	0.020599	0.006104	0.014191	-0.002747	0.020752	0.035706	0.009003	0.15869	-0.023346	-0.040131	0.00061	0.070648	-0.014038	-0.070496	0.006866	0.016327	-0.33341	-0.16769	-0.019836	-0.035706	0.016022	0.44952	-0.68634	-0.40955	-0.007629	0.61813	-0.006714	0.75211	-0.043182	-0.000458	0.000458
3.588	0.002136	-0.003662	-0.001221	0.016785	0.003967	0.032349	0.023956	0.003967	0.19775	-0.042572	0.055084	-0.001221	0.097504	0.017853	-0.065918	0.000305	-0.004425	-0.31204	-0.18112	-0.022583	0.008545	0.032654	0.001068	-0.5423	-0.31296	-0.00351	0.71335	-0.00061	0.032501	-0.19455	0.000153	-0.00412
3.589	-0.00473	0.001373	-0.003662	0.004578	0.032959	0.02594	0.046234	-0.00412	0.21652	-0.019531	0.071259	0.00473	0.063477	0.010834	-0.021362	-0.003357	-0.023804	-0.21133	-0.051727	0.018005	0.016937	-0.034943	-0.55191	0.030975	0.079193	-0.004272	0.57648	-0.007477	-0.32608	-0.2179	-0.00061	-0.002747
3.59	0.006561	0.017242	-0.004883	0.00412	0.025787	0.030212	0.034943	0.027466	0.23285	-0.007172	0.059509	0.00351	0.032654	-0.040588	-0.11932	-0.014343	-0.031738	-0.1564	0.18921	-0.046844	0.000305	-0.065918	-0.58731	0.18631	0.26154	-0.011444	0.19913	-0.005951	-0.084534	-0.16861	0.006714	-0.002441
3.591	0.001984	-0.007477	0.007782	0.013275	-0.037079	0.00473	0.048676	0.006866	0.23697	-0.035553	0.028839	0.001984	0.027313	-0.042572	-0.11581	-0.002899	-0.007019	-0.090637	-0.066681	-0.089874	-0.040741	-0.10101	-0.29648	0.38757	0.30838	0.000458	-0.56686	-0.003815	-0.30868	-0.14328	-0.001373	-0.001373
3.592	0.00824	-0.016174	0.014038	0.008545	-0.096741	0.00824	0.045013	0.012207	0.24262	-0.033417	-0.00351	0.006409	0.028534	-0.037537	0.012817	-0.001068	-0.006104	-0.052795	0.002136	-0.13657	-0.052338	-0.090485	-0.14801	0.48218	0.21057	0.012054	-0.95413	-0.00412	-1.0591	-0.24521	-0.001068	-0.001068
3.593	0.002747	-0.026398	0.010071	0.028229	-0.088959	-0.008545	0.050812	0.007935	0.2652	-0.043182	0.023193	0.005188	0.026093	-0.072632	0.003204	-0.003357	0.00061	0.023041	-0.040131	-0.1413	-0.037537	-0.098724	-0.159	0.40924	0.12146	0.011292	-0.69427	-0.00885	-1.1859	-0.26077	-0.000305	-0.001678
3.594	0.004883	-0.037231	-0.02655	0.032501	0.001831	-0.033569	0.05249	0.010071	0.27969	-0.028381	0.058746	0.006714	0.004883	-0.16022	0.39642	0.002289	0.014801	0.055237	-0.19608	-0.13519	-0.029297	-0.073395	-0.159	0.1474	0.091095	-0.000305	-0.23834	-0.002594	0.24414	-0.12482	-0.004272	-0.005188
3.595	0.000916	-0.033112	-0.053101	0.01358	0.023041	-0.021057	0.06073	0.00351	0.28275	-0.016785	0.062561	-0.00351	0.001068	-0.13702	0.019836	-0.001984	0.006256	0.070343	-0.40054	-0.048981	-0.020447	-0.078735	-0.085907	0.066071	0.17853	-0.002441	0.083923	-0.004272	1.8846	0.11841	0.000305	-0.00824
3.596	0.004883	-0.074005	-0.023956	0	0.027771	-0.001678	0.050354	0.002136	0.30212	-0.025787	0.090942	0.009766	0.000305	-0.082245	0.30884	-0.003967	0.014038	0.015106	-0.35736	0.10712	-0.049133	-0.071869	-0.1683	0.084076	0.31036	-0.001984	-0.20676	-0.009766	0.65491	0.1622	0	-0.007324
3.597	0.006256	-0.08255	-0.00824	0.001678	0.015411	0.007629	0.041046	0.002289	0.30945	-0.035858	0.008698	0.001373	0.10788	0.007935	-0.093842	-0.018616	0.00946	0.089417	-0.29907	0.20691	-0.047913	-0.075073	-0.054626	-0.002594	0.10071	0.001221	-0.27603	-0.008545	0.39749	0.2179	0.001678	-0.015106
3.598	0.008545	-0.063782	0.016022	-0.010376	0.019836	-0.016174	0.03952	0.008087	0.29358	-0.07431	-0.080109	0.004883	0.20996	0.077209	-0.27237	0.006104	0.009918	0.11826	-0.26535	0.25635	-0.011292	-0.050354	-0.088501	0.042572	0.028076	0.005493	-0.25848	-0.00946	-0.18906	0.24536	-0.000916	-0.014038
3.599	0.001526	-0.051422	-0.023499	0.000458	0.012512	-0.014343	0.057678	0.006256	0.30518	-0.05188	-0.10574	-0.001068	0.30441	0.009766	-0.12833	-0.002441	0.000763	0.13992	-0.35324	0.19898	0.012665	-0.063324	-0.075378	-0.016785	0.065918	0.003662	-0.35095	-0.007324	0.68115	0.19363	-0.001984	-0.00824
3.6	0.006714	-0.050964	-0.018921	0.008392	0.008087	-0.028076	0.04837	0.00412	0.31174	-0.032196	-0.092621	0.001373	0.24139	-0.041656	-0.17853	0.000916	-0.007935	0.15579	-0.16266	0.18127	-0.004883	-0.06134	-0.053558	0.045624	0.050659	0.008698	-0.17746	-0.009308	0.37659	0.15762	-0.001678	-0.007019
3.601	0.004883	-0.055389	-0.007935	0.009613	0.007172	-0.023193	0.046997	0.00946	0.30426	-0.044403	-0.027008	0.000458	0.085754	-0.039673	-0.12177	0.015259	0.000763	0.11017	0.20859	0.16327	-0.04425	-0.072327	0.054932	0.13168	0.043945	0.004578	0.1207	0.003357	-0.3569	0.11185	-0.001526	-0.009613
3.602	0.001831	-0.052338	-0.006256	0.031281	0.006714	-0.033417	0.03891	0.003052	0.3006	-0.045471	0.035248	-0.004425	0.047607	-0.020447	-0.059814	0.002594	0.007019	0.1062	0.82123	0.060577	-0.062103	-0.058746	0.11246	0.14038	0.014038	-0.020752	0.18372	-0.00885	-0.86472	0.17273	-0.001831	-0.002594
